<?xml version="1.0" encoding="UTF-8" standalone="no"?>
<!-- Created with Inkscape (http://www.inkscape.org/) -->

<svg
   width="197.86302mm"
   height="122.94048mm"
   viewBox="0 0 197.86302 122.94048"
   version="1.1"
   id="svg1050"
   inkscape:version="1.1 (c4e8f9e, 2021-05-24)"
   sodipodi:docname="home_page_img.svg"
   xmlns:inkscape="http://www.inkscape.org/namespaces/inkscape"
   xmlns:sodipodi="http://sodipodi.sourceforge.net/DTD/sodipodi-0.dtd"
   xmlns="http://www.w3.org/2000/svg"
   xmlns:svg="http://www.w3.org/2000/svg">
  <sodipodi:namedview
     id="namedview1052"
     pagecolor="#ffffff"
     bordercolor="#666666"
     borderopacity="1.0"
     inkscape:pageshadow="2"
     inkscape:pageopacity="0.0"
     inkscape:pagecheckerboard="0"
     inkscape:document-units="mm"
     showgrid="false"
     inkscape:zoom="0.64943183"
     inkscape:cx="-37.725284"
     inkscape:cy="382.64216"
     inkscape:window-width="1920"
     inkscape:window-height="951"
     inkscape:window-x="0"
     inkscape:window-y="25"
     inkscape:window-maximized="1"
     inkscape:current-layer="layer1" />
  <defs
     id="defs1047">
    <rect
       x="34.297462"
       y="224.29453"
       width="186.18623"
       height="43.552334"
       id="rect12214" />
    <rect
       x="34.297462"
       y="224.29453"
       width="186.18623"
       height="43.552334"
       id="rect12214-3" />
    <linearGradient
       id="linearGradient4105">
      <stop
         id="stop4107"
         style="stop-color:#ffffff"
         offset="0" />
      <stop
         id="stop4109"
         style="stop-color:#a3bcdf"
         offset="1" />
    </linearGradient>
    <rect
       x="34.297462"
       y="224.29453"
       width="186.18623"
       height="43.552334"
       id="rect12214-3-2" />
  </defs>
  <g
     inkscape:label="Layer 1"
     inkscape:groupmode="layer"
     id="layer1"
     transform="translate(-2.2679068,-51.076862)">
    <path
       class="st0"
       d="m 131.52597,80.170298 c 0.86789,-6.976434 0.32675,-14.093684 2.04212,-19.455097 1.14358,-3.539852 3.28783,-5.633712 5.91197,-7.02335 8.88323,-4.685368 26.18003,-3.267552 31.34664,5.821479 1.08229,1.906094 1.69494,4.103223 1.79705,6.600866 0.33689,7.643039 0.78622,14.929319 1.55203,21.257846 4.19657,10.572595 10.58843,18.666378 18.5629,24.976128 11.09896,6.40366 9.08749,12.21577 -1.95021,11.08903 -2.38931,-0.24416 -4.67646,-1.0892 -6.89219,-2.43188 2.43014,16.08423 -0.81682,28.57231 -9.50609,37.59562 3.18571,1.26759 5.35038,2.86381 4.94194,5.33327 -1.29676,1.27697 -3.13467,1.23942 -5.51375,-0.0845 l -4.08424,2.61969 c -1.17422,-0.98593 -2.07274,-2.01877 -3.99236,-2.88261 -1.6541,1.1925 -3.72688,1.53052 -6.46332,0.52582 0.57181,-2.00936 1.67456,-3.53044 3.23679,-4.62901 -2.04215,-0.87325 -3.3389,-2.18776 -4.18636,-3.75583 -4.08428,0.69482 -8.17874,0.71363 -12.26298,-0.26297 l -3.79836,4.11259 c 1.87874,0.99529 3.25719,2.37557 3.13466,4.89195 -2.18509,0.6385 -4.46205,0.4601 -5.68732,-0.49765 -1.15381,1.05162 -2.5118,1.85914 -4.01277,2.50701 -1.68474,-0.90139 -3.02236,-1.91546 -4.18636,-2.97648 l -1.52139,0.95772 c -2.01149,0.47887 -3.62477,0.27219 -4.85005,-0.61033 0.41863,-2.3192 1.80728,-4.11259 4.75816,-5.07034 -7.43335,-7.89657 -10.69053,-20.11234 -8.84241,-37.59562 -7.05555,3.69007 -18.99178,2.26285 -15.96943,-3.4929 10.18,-6.96704 17.12324,-13.23924 22.88202,-23.595873 1.1436,-2.056309 2.12382,-4.187713 2.92025,-6.384869 z m 9.97577,-8.779222 c 0,-0.713591 0.31645,-1.361459 0.81687,-1.82156 v 0 c 0.51051,-0.469471 1.20485,-0.760543 1.98085,-0.760543 0.77599,0 1.48056,0.291001 1.98086,0.751174 0.51053,0.46947 0.81686,1.107933 0.81686,1.82156 h -0.86792 c 0,-0.488278 -0.21457,-0.938976 -0.56158,-1.258189 -0.34732,-0.319391 -0.83728,-0.516421 -1.36822,-0.516421 -0.53094,0 -1.02105,0.197313 -1.36822,0.516421 v 0 c -0.34732,0.319391 -0.56158,0.769911 -0.56158,1.258189 h -0.86792 z m 7.24955,1.868512 c 3.26741,-1.981186 4.0128,-2.037506 7.3721,-0.168923 2.52203,1.399042 -2.6956,8.948216 -3.55329,10.469301 -0.82709,-1.492908 -5.96303,-9.004536 -3.81881,-10.300307 z m -4.45183,-3.014027 c 0.69433,0 1.25592,0.51642 1.25592,1.15492 0,0.638499 -0.56159,1.15492 -1.25592,1.15492 -0.69434,0 -1.25591,-0.516421 -1.25591,-1.15492 0,-0.6385 0.5718,-1.15492 1.25591,-1.15492 z m 16.16341,0 c 0.69434,0 1.25593,0.51642 1.25593,1.15492 0,0.638499 -0.56159,1.15492 -1.25593,1.15492 -0.6943,0 -1.25587,-0.516421 -1.25587,-1.15492 0,-0.6385 0.56157,-1.15492 1.25587,-1.15492 z m -2.80791,1.145515 c 0,-0.713591 0.31645,-1.361459 0.81687,-1.82156 0.51053,-0.469471 1.20486,-0.751139 1.98086,-0.751139 0.776,0 1.47033,0.291002 1.98085,0.760542 v 0 c 0.51053,0.469471 0.81687,1.10797 0.81687,1.821562 h -0.86793 c 0,-0.488243 -0.21457,-0.938941 -0.56157,-1.258191 v 0 c -0.34733,-0.319391 -0.82705,-0.51642 -1.36822,-0.51642 -0.53095,0 -1.02106,0.197313 -1.36822,0.51642 -0.34732,0.319393 -0.56158,0.769948 -0.56158,1.258191 h -0.86793 z m -5.02362,-4.244039 c 0.6637,-3.14551 1.51115,-6.018685 3.41035,-7.680622 6.0651,-5.333271 12.54888,0.01069 13.96815,7.004577 v 3.755795 c 0,3.342682 0.012,6.168907 -1.59286,9.314417 -1.06192,2.075087 -2.58331,3.624348 -4.44164,4.798039 2.33826,0.187738 4.25783,1.136114 5.08492,4.065641 l 7.14742,29.595766 c 2.32804,8.0656 3.07343,22.57241 -2.15443,29.76478 -1.20487,1.65257 -2.7875,3.0704 -4.87046,4.16895 -2.35867,1.23942 -3.07342,1.16433 -5.73838,1.03284 -6.3102,-0.291 -10.00644,-1.79337 -18.46084,0.0283 -1.55203,0.21613 -3.12443,0.31939 -4.75816,0.16893 -2.89979,-0.27219 -5.02363,-1.12661 -7.13722,-3.00452 -1.46011,-1.30515 -2.61392,-2.92012 -3.51246,-4.79805 -6.25912,-13.11716 0.32676,-31.06991 3.40015,-44.50633 l 2.07276,-8.9388 c 0.52072,-2.253485 0.90871,-4.291024 2.74664,-6.046866 0.9598,-0.920165 2.17489,-1.530489 3.64522,-1.812186 -1.58268,-0.722998 -2.92025,-1.868515 -3.99236,-3.455322 -2.75688,-4.084451 -2.33824,-7.483451 -2.33824,-11.981052 0.52075,-3.342645 1.24569,-6.394254 3.0836,-8.281538 6.17743,-6.337935 14.57059,-1.690114 14.43784,6.807405 z"
       id="path5827"
       style="clip-rule:evenodd;fill:#1a1a1a;fill-rule:evenodd;stroke-width:0.979146" />
    <g
       id="g7314"
       transform="matrix(-0.19376364,-0.18016656,0.18016656,-0.19376364,-88.790842,-97.712443)">
      <g
         id="g7254"
         transform="translate(-194.01575,-4.6194226)" />
      <g
         id="g7256" />
      <g
         id="g7258" />
      <g
         id="g7260" />
      <g
         id="g7262" />
      <g
         id="g7264" />
      <g
         id="g7266" />
      <g
         id="g7268" />
      <g
         id="g7270" />
      <g
         id="g7272" />
      <g
         id="g7274" />
      <g
         id="g7276" />
      <g
         id="g7278" />
      <g
         id="g7280" />
      <g
         id="g7282" />
      <g
         id="g7284" />
      <g
         id="g8072"
         transform="matrix(0.39818335,6.9332566e-5,-7.6741322e-5,0.38784909,-1086.759,-146.09587)">
        <g
           id="g8013">
          <g
             id="g8011">
            <path
               d="M 475.725,27 C 457.841,1.443 424.159,6.835 398.967,16.491 384.453,22.054 369.666,28.897 356.236,36.74 313.124,61.901 230.007,118.092 239.067,177.23 162.727,224.158 75.828,274.856 6.349,314.754 c -1.646,0.945 -2.803,2.128 -3.621,3.418 -2.828,2.904 -3.935,7.211 -0.978,11.68 7.607,11.48 14.701,23.267 21.549,35.215 0.045,0.102 0.068,0.209 0.119,0.315 17.181,35.047 35.256,69.618 53.729,103.996 0.556,1.041 1.234,1.854 1.945,2.559 1.904,4.007 6.028,6.703 11.535,4.819 106.102,-36.282 227.28,-121.896 314.845,-189.865 2.985,-2.315 3.895,-5.134 3.509,-7.81 0.355,-2.031 0.102,-4.251 -1.016,-6.525 -6.8,-13.843 -14.539,-27.041 -22.765,-39.913 9.196,-6.807 17.702,-14.419 25.08,-21.652 23.49,-23.024 43.985,-49.305 57.884,-79.245 C 478.03,110.479 488.43,79.694 485.257,53.337 484.099,43.749 481.149,34.746 475.725,27 Z M 386.161,275.749 C 305.096,338.671 189.907,418.923 92.499,453.996 76.27,423.722 60.388,393.279 45.159,362.491 c -0.213,-1.071 -0.556,-2.163 -1.186,-3.275 -6,-10.623 -12.314,-21.048 -18.859,-31.331 84.914,-48.967 199.61,-115.902 282.13,-168.794 17.072,23.519 34.81,46.504 51.028,70.495 -5.104,2.679 -10.277,4.753 -15.422,5.979 -1.097,-6.545 -3.672,-12.672 -7.784,-17.331 -0.563,-0.645 -1.158,-1.251 -1.768,-1.835 -18.159,-17.217 -53.431,-5.081 -62.627,16.806 -4.666,11.098 0.325,30.932 10.39,38.336 11.893,8.744 31.118,10.846 44.417,4.291 8.801,-4.337 14.355,-12.843 16.707,-22.349 8.627,-1.65 17.199,-5.062 25.481,-9.567 6.571,10.344 12.801,20.911 18.495,31.833 z m -77.394,-48.337 c 3.428,-0.338 7.032,0.625 10.511,3.661 1.504,1.315 2.564,2.75 3.301,4.253 -4.784,-1.439 -9.414,-4.004 -13.812,-7.914 z m 9.349,25.472 c -4.362,4.468 -10.567,7.316 -16.225,6.189 -3.529,-0.701 -6.007,-2.209 -7.606,-4.199 -3.367,-4.199 -2.823,-10.562 -0.025,-16.12 0.127,0.135 0.213,0.279 0.355,0.414 7.51,7.2 15.422,11.542 23.501,13.716 z M 467.012,53.342 c 0.665,51.303 -21.566,89.499 -53.608,127.47 -8.795,10.42 -22.369,25.489 -37.709,37.382 -17.89,-26.286 -37.582,-51.387 -56.127,-77.368 -0.676,-0.947 -1.452,-1.676 -2.265,-2.315 -2.834,-3.692 -7.729,-5.563 -12.832,-2.283 -15.098,9.699 -31.189,19.827 -47.881,30.187 1.523,-42.754 65.745,-85.902 95.131,-105.406 27.756,-18.42 102.82,-63.639 115.331,-8.119 -0.005,0.155 -0.04,0.289 -0.04,0.452 z"
               id="path8009" />
          </g>
        </g>
        <g
           id="g8015" />
        <g
           id="g8017" />
        <g
           id="g8019" />
        <g
           id="g8021" />
        <g
           id="g8023" />
        <g
           id="g8025" />
        <g
           id="g8027" />
        <g
           id="g8029" />
        <g
           id="g8031" />
        <g
           id="g8033" />
        <g
           id="g8035" />
        <g
           id="g8037" />
        <g
           id="g8039" />
        <g
           id="g8041" />
        <g
           id="g8043" />
      </g>
      <text
         xml:space="preserve"
         transform="translate(-1105.1894,-449.23235)"
         id="text12212"
         style="font-style:normal;font-weight:normal;font-size:40px;line-height:1.25;font-family:sans-serif;white-space:pre;shape-inside:url(#rect12214-3-2);fill:#000000;fill-opacity:1;stroke:none" />
    </g>
    <text
       xml:space="preserve"
       style="font-style:normal;font-weight:normal;font-size:5.06124px;line-height:1.25;font-family:sans-serif;fill:#000000;fill-opacity:1;stroke:none;stroke-width:0.126531"
       x="109.51553"
       y="76.512001"
       id="text18794"
       transform="matrix(0.95859817,0.13732047,-0.1464334,1.0222132,0,0)"><tspan
         sodipodi:role="line"
         id="tspan18792"
         style="stroke-width:0.126531"
         x="109.51553"
         y="76.512001">for sale!</tspan></text>
    <text
       xml:space="preserve"
       style="font-style:normal;font-weight:normal;font-size:4.60638px;line-height:1.25;font-family:sans-serif;fill:#000000;fill-opacity:1;stroke:none;stroke-width:0.11516"
       x="108.44595"
       y="69.822548"
       id="text18794-9"
       transform="matrix(0.95911011,0.13481675,-0.14910429,1.0216744,0,0)"><tspan
         sodipodi:role="line"
         id="tspan18792-7"
         style="stroke-width:0.11516"
         x="108.44595"
         y="69.822548">Everything</tspan></text>
    <g
       style="overflow:visible"
       id="g5833"
       transform="matrix(0.15542911,-0.04886587,0.05084892,0.16173664,-9.7875077,100.49264)">
      <g
         id="g5792">
	<path
   fill-rule="evenodd"
   clip-rule="evenodd"
   fill="#ffffff"
   d="m 148,70.083 c 5.244,-9.303 11.924,-19.486 21,-22 11.373,7.587 13.214,13.667 21,23 20.086,3.995 18.489,-13.443 28,-12 -0.985,8.802 -2.589,9.772 -2,17 -18.5,1.612 -50.993,-3.074 -68,-6 z"
   id="path5730" />

	<path
   fill-rule="evenodd"
   clip-rule="evenodd"
   d="m 294,64.083 c 1,0 2,0 3,0 -1.787,2.517 2.565,5.578 4,8 -3.757,2.711 -6.02,-4.613 -7,-8 z"
   id="path5732" />

	<path
   fill-rule="evenodd"
   clip-rule="evenodd"
   fill="#ffffff"
   d="m 543,119.083 c 0.835,11.121 6.175,18.265 3,34 -5.711,-11.514 -2.852,-20.53 -7,-27 -17.403,3.628 -15.394,17.589 -14,33 -5.715,4.873 -13.027,2.235 -19,8 -5.967,-31.286 15.195,-61.395 37,-48 z"
   id="path5734" />

	<path
   fill-rule="evenodd"
   clip-rule="evenodd"
   fill="#ffffff"
   d="m 464,119.083 c -4.301,17.22 -5.713,35.534 -6,46 -9.628,-1.51 -24.549,1.698 -37,0 0.043,-16.092 2.773,-32.845 9,-48 6.094,-2.507 23.304,8.848 34,2 z"
   id="path5736" />

	<path
   fill-rule="evenodd"
   clip-rule="evenodd"
   fill="#ffffff"
   d="m 106,126.083 c -4.443,14.758 -14.65,34.445 -17,48 -17.499,-3.32 -33.373,-9.318 -45,-16 5.666,-15.822 10.875,-26.35 16,-41 16.751,1.775 29.087,8.204 46,9 z"
   id="path5738" />

	<path
   fill-rule="evenodd"
   clip-rule="evenodd"
   fill="#ffffff"
   d="m 499,119.083 c 2.566,3.485 9.09,2.658 14,1 -7.975,12.975 -11.195,34.812 -11,47 -11.624,-1.986 -21.908,-2.371 -33,-1 -3.471,-10.212 0.979,-26.865 5,-38 11.67,3.442 19.037,1.462 25,-9 z"
   id="path5740" />

	<path
   fill-rule="evenodd"
   clip-rule="evenodd"
   fill="#ffffff"
   d="m 525,167.083 c -2.697,18.754 1.33,38.646 0,55 -8.432,-0.152 -11.956,2.616 -17,5 -2.957,-12.791 -1.037,-30.268 -3,-53 6.863,-2.374 11.02,-5.087 20,-7 z"
   id="path5742" />

	<path
   fill-rule="evenodd"
   clip-rule="evenodd"
   fill="#ffffff"
   d="m 502,174.083 c 1.636,14.504 2.623,43.544 3,51 -9.841,1.513 -29.562,-3.701 -38,1 -1.532,-19.868 -0.83,-35.834 1,-53 8.083,-0.026 30.006,-0.428 34,1 z"
   id="path5744" />

	<path
   fill-rule="evenodd"
   clip-rule="evenodd"
   d="m 332,187.083 c -5.605,2.677 -11.724,3.681 -15,4 -42.296,4.122 -68.093,2.326 -101,4 8.443,-4.58 23.702,-1.99 38,-3 23.582,-1.666 55.462,-3.308 78,-5 z"
   id="path5746" />

	<path
   fill-rule="evenodd"
   clip-rule="evenodd"
   d="m 95,59.083 c -1.979,-4.212 -2.262,-4.604 -4,-8 4.711,-18.81 34.631,-34.465 55,-37 0.836,-0.104 1.911,2.01 2,2 6.708,-0.761 20.544,-3.889 29,-2 21.91,-14.291 56.471,-19.562 75,-7 12.369,-5.792 29.228,-2.391 34,0 8.401,2.352 15.074,8.871 18,15 12.65,-0.782 39.021,4.754 42,25 10.668,7.605 11.771,23.555 21,27 5.967,12.392 10.308,43.83 29,36 8.666,-3.63 8.48,-12.847 20,-10 3.559,-10.169 21.045,-8.426 25,-4 7.657,-9.705 22.904,-13.581 35,-6 6.644,-12.299 37.021,-12.517 46,6 10.105,-1.105 15.88,2.12 22,5 1.387,4.651 6.667,8.411 6,14 -1.146,9.602 3.062,19.628 4,33 1.259,17.925 -0.743,31.843 2,45 6.59,5.597 26.984,1.555 41,3 -0.941,3.438 -6.727,3.393 -8,1 -14.925,2.74 -29.985,-0.67 -48,12 -5.428,0.724 -9.028,-4.459 -14,-1 0.583,3.666 0.486,4.037 1,9 2.928,2.794 3.938,2.315 10,3 -5.413,6.255 -16.164,4.337 -23,7 -2.673,1.042 -5.346,5.695 -8,6 -3.404,0.391 -9.979,-5.304 -15,-6 -10.562,-1.464 -19.808,-0.056 -27,6 -17.198,-7.369 -39.547,8.278 -51,2 3.936,-1.963 9.074,0.402 13,-1 -0.535,-2.062 -4.731,-0.238 -2,-3 -34.922,-0.254 -55.325,7.032 -72,28 -25.063,-0.628 -65.699,0.029 -86,16 -3.221,-3.514 0.624,-3.243 3,-5 0.521,-0.385 4.814,-4.606 5,-2 -0.43,-6.039 -29.391,-8.228 -36,-8 -19.068,0.655 -23.207,7.264 -34,13 0.09,-2.729 -1.666,-2.013 0,-4 -15.161,-6.722 -32.444,5.433 -44,6 -5.327,0.262 -12.146,-3.537 -19,-4 -23.467,-1.583 -43.522,1.492 -60,6 1.818,-2.443 13.102,-6.378 16,-7 2.424,-0.52 8.275,-0.484 1,-5 -9.937,-6.168 -40.418,-7.645 -56,-4 -0.013,-26.363 -31.347,-21.978 -43,-24 4.458,-5.99 11.413,0.327 18,-2 4.019,-14.696 5.833,-32.938 10,-48 2.13,-7.699 4.211,-18.157 7,-22 -1.472,2.029 4.214,-2.096 4,-1 0.433,-2.214 -3.035,-4.866 -3,-7 0.103,-6.274 6.808,-14.191 10,-22 3.48,-8.512 2.984,-17.566 7,-23 1.543,-2.088 4.916,-1.66 6,-4 0.678,-1.463 -1.161,-5.275 -1,-6 1.02,-4.587 8.282,-10.665 12,-15 8.305,-9.683 19.981,-14.912 25,-28 z m 219,-28 c 3.898,-0.905 -5.835,-0.423 -4,0 -5.633,-1.298 -5.678,-4.537 -7,-6 -3.136,-3.469 -10.616,-5.191 -10,-10 -10.107,-4.845 -25.186,-4.826 -40,-2 -15.23,-12.084 -50.434,-3.352 -59,-1 0.61,0.057 1.184,0.149 1,1 -25.808,12.485 -33.072,4.307 -59,10 -13.74,6.584 -33.777,14.964 -38,31 9.048,5.631 15.988,-6.137 21,-11 17.507,10.105 32.209,1.154 52,-1 -0.039,3.705 1.536,5.797 3,8 5.681,1.23 5.916,-0.328 10,1 -0.557,7.224 0.645,12.688 5,15 5.737,-0.422 19.309,-1.445 17,-12 2.632,-1.035 3.368,-3.965 6,-5 3.35,9.347 22.164,4.523 23,-7 12.301,4.7 21.681,8.965 32,2 3.736,-2.521 5.463,-9.896 9,-9 6.185,14.558 20.661,2.81 31,2 -2.548,4.119 -8.058,5.276 -11,9 0.991,1.956 0.039,3.879 2,8 8.074,3.765 20.413,0.848 27,-5 16.525,11.078 18.762,-5.222 10,-14 -7.693,-1.76 -13.784,-5.675 -21,-4 z m -87,49 c 21.651,-3.969 41.048,0.216 64,-6 -2.107,4.538 1.317,-1.728 3,1 -2.729,-8.546 -9.614,-19.052 -14,-29 -13.315,4.349 -16.904,10.251 -31,8 -6.974,-12.747 -14.548,8.079 -23,6 1.852,5.633 -5.817,16.659 1,20 z m 69,-2 c -11.372,3.107 -27.015,2.005 -34,6 12.944,-1.125 18.548,-1.842 39,-2 6.797,14.493 7.986,20.47 16,34 -1.577,-12.042 -8.759,-24.227 -17,-36 2.084,-0.294 -1.484,-2.706 2,-3 2.213,1.44 -1.259,2.44 1,3 5.043,-7.122 20.661,-0.522 26,-5 0.835,-0.7 -0.939,1.182 2,1 6.209,-0.383 14.507,-4.283 20,-7 -16.591,4.33 -29.79,5.275 -49,8 -0.239,-1.427 -1.646,-1.687 -2,-3 20.25,-3.688 32.162,-2.223 51,-11 0.537,-2.317 -4.165,-3.277 -4,-8 -1.453,0.547 -5.169,-1.168 -5,1 -0.537,3.855 -15.732,3.419 -21,3 -10.486,8.801 -25.697,2.351 -28,-12 -2.072,0.595 -6.569,-1.236 -7,1 4.079,4.851 10.367,10.913 7,16 -3.274,-6.844 -4.562,-13.958 -11,-16 5.055,6.822 12.391,16.76 14,30 z m -74,-18 c -4.15,8.135 2.401,16.124 -5,22 -3.102,2.463 -10.023,-3.498 -14,1 6.194,0.482 9.264,1.09 15,0 1.971,5.735 -0.306,11.826 -1,19 -1.172,12.116 1.307,25.551 -5,31 -36.65,-1.533 -59.85,-5.263 -94,-8 -3.546,-6.996 2.229,-11.82 7,-20 5.865,-10.056 9.933,-21.771 18,-26 -7.25,13.931 -19.881,25.461 -22,41 4.553,0.985 15.873,1.103 22,4 8.139,-2.608 14.618,1.439 23,2 18.855,1.261 26.197,3.104 45,1 -0.148,-14.477 5.31,-29.341 3,-41 -22.747,-0.922 -49.259,-3.069 -70,-8 19.839,-2.013 38.562,7.095 59,3 -15.852,-2.994 -28.125,-1.482 -41,-3 -5.349,-0.631 -12.198,-3.665 -18,-4 0.552,0.032 1.138,0.784 0,1 -15.706,2.983 -30.415,-9.102 -46,-5 8.876,2.201 11.724,0.725 19,2 5.826,1.021 21.382,3.731 22,7 0.196,1.036 -9.158,10.476 -13,17 -4.502,7.647 -9.931,17.758 -14,27 -7.409,-0.808 -17.696,-3.835 -27,-6 -7.43,-1.729 -16.486,-7.194 -22,-2 15.136,3.364 30.527,6.827 49,11 -2.815,5.639 -6.761,11.378 -10,20 -3.916,10.422 -7.546,30.895 -13,34 -13.904,-4.359 -29.271,-9.042 -43,-15 -0.294,2.039 -2.706,1.961 -3,4 19.598,6.52 31.355,10.985 48,13 -0.2,20.313 -8.676,46.466 -8,73 -3.468,-2.107 -1.842,1.317 -3,3 19.867,3.705 22.647,2.983 34,11 15.145,-4.939 34.396,3.238 44,2 3.538,-0.456 6.186,-3.238 11,-4 13.117,-2.074 26.453,-0.249 39,-4 -1.221,-3.553 -0.309,-13.815 0,-20 -3.501,-9.934 -0.902,-25.975 -3,-45 -34.65,-2.093 -74.611,-2.083 -109,-12 30.604,3.07 67.138,8.285 94,10 7.816,0.499 14.458,-1.981 20,2 -2.632,2.942 -0.105,5.142 0,8 0.101,2.734 -2.022,5.365 -2,8 0.018,2.084 1.899,4.555 2,7 0.492,11.882 -1.373,32.028 4,44 2.621,-1.151 12.312,-6.475 15,-7 -0.05,0.01 1.271,2.089 2,2 10.252,-1.252 38.162,-3.727 36,0 6.582,-3.233 13.148,4.038 20,4 1.816,-0.01 6.445,-3.199 10,-4 15.64,-3.523 36.052,-1.652 46,-6 -1.434,-21.367 -8.357,-41.79 -8,-66 3.251,15.221 5.212,39.039 8,54 1.327,7.121 2.278,12.774 7,7 -4.885,-19.927 -5.651,-33.739 -9,-48 -0.979,-4.173 -6.461,-9.937 -2,-15 5.05,22.311 6.613,40.249 14,62 5.621,-6.005 13.158,-5.773 18,-11 -4.232,-11.279 -2.199,-36.409 -4,-57 -11.246,3.759 -18.419,6.575 -27,7 8.225,-8.559 27.029,-2.952 28,-14 -8.251,5.8 -19.572,6.132 -31,9 -1.984,-7.081 -4.39,-16.734 -7,-26 -1.871,-6.642 -3.165,-17.863 -8,-20 5.295,14.087 7.244,29.422 11,43 0.255,0.923 -1.147,3.277 -3,4 -7.067,2.759 -17.158,3.054 -27,4 -17.002,1.636 -41.422,2.856 -45,2 -8.923,-2.136 -22.392,4.461 -44,2 -0.001,-21.497 -0.438,-31.808 5,-53 -0.808,16.533 -3.274,30.516 -4,47 2.039,0.294 1.961,2.706 4,3 18.793,-1.827 38.958,-0.149 72,-6 -3.296,2.824 3.84,1.031 4,1 6.187,-0.3 27.184,-1.185 35,-5 -2.851,-15.956 -6.43,-33.071 -12,-48 -10.599,3.139 -14.786,1.073 -24,5 -25.268,-1.27 -45.945,7.108 -72,2 30.477,-3.286 42.9,-0.818 61,-3 5.209,-0.628 10.218,-3.115 16,-4 9.912,-1.518 20.4,-5.014 25,0 7.788,20.074 9.237,32.386 15,48 9.351,-3.404 22.153,-5.447 32,-11 -2.978,-7.908 2.146,-19.562 3,-33 1.686,-3.498 11.954,-12.779 5,-18 -17.955,5.707 -34.191,8.668 -54,10 5.542,-5.227 7.794,-0.437 15,-4 7.971,-1.167 -4.655,-0.965 -3,-1 -5.58,0.119 -11.966,2.714 -16,3 0.075,-1.742 -0.224,-3.11 -1,-4 14.045,-3.746 39.969,-1.112 56,-12 -4.84,-8.717 -10.105,-21.677 -17,-35 -6.687,-2.795 -11.174,1.502 -18,3 -12.721,2.792 -24.59,1.17 -37,6 7.988,13.01 14.788,23.942 16,37 -1.889,-0.111 -0.694,-3.306 -3,-3 -1.259,2.549 0.93,5.833 1,8 -31.59,7.841 -62.199,7.874 -98,9 -0.239,-1.427 -1.646,-1.687 -2,-3 1.909,-6.504 0.275,-13.334 3,-20 1.758,3.368 -1.831,14.177 0,18 11.509,1.11 32.477,1.076 46,-2 -0.036,0.548 -1.274,2.306 0,2 5.805,-1.392 16.893,-2.916 27,-4 6.186,-0.664 17.155,0.107 19,-5 2.683,-7.428 -13.488,-26.721 -14,-34 -30.974,-0.169 -43.95,2.46 -75,2 -2.34,10.094 0.383,20.175 -3,23 -0.371,-2.912 -2.076,-21.399 4,-25 -1.714,-1.286 -3.932,-2.068 -4,-5 1.346,-1.071 4.643,-18.814 1,-20 z m -6,16 c -0.589,-7.228 1.015,-8.198 2,-17 -9.511,-1.443 -7.914,15.995 -28,12 -7.786,-9.333 -9.627,-15.413 -21,-23 -9.076,2.514 -15.756,12.697 -21,22 17.007,2.926 49.5,7.612 68,6 z m -96,-26 c -2.251,4.874 -7.225,9.031 -16,9 0.857,3.19 -1.574,3.093 -2,5 11.261,3.398 25.995,4.483 35,6 2.262,-6.416 10.687,-11.966 11,-17 -8.629,3.605 -15.913,-2.185 -28,-3 z m 21,21 c 3.553,1.41 7.939,-7.135 11,-13 2.843,-0.867 6.95,-5.659 6,-7 -8.067,6.092 -11.837,15.396 -17,20 z m -9,6 c -15.815,-0.216 -32.103,-7.808 -42,0 -11.22,8.851 -17.784,21.543 -26,29 16.703,9.167 31.577,8.219 45,14 5.999,-16.886 15.809,-27.611 23,-43 z m 381,37 c 7.003,-4.82 17.604,0.952 27,-3 2.473,1.173 -2.426,4.155 2,4 1.143,-3.705 0.098,-5.797 1,-8 -11.547,-7.533 -21.623,2.783 -28,-14 -12.179,-7.234 -29.618,-5.126 -38,4 -12.128,-7.64 -27.406,-3.098 -31,6 -5.815,-2.706 -13.244,-3.934 -20,-4 -2.258,12.527 -16.543,4.239 -20,13 7.207,2.086 11.791,3.09 23,0 0.102,1.122 -1.453,1.557 0,2 12.481,-0.668 25.909,1.702 39,-2 1.752,15.666 27.884,11.851 29,-2 4.38,3.76 6.563,-6.769 12,-8 -0.396,5.583 -3.941,7.7 -9,12 4.62,2.064 13.949,-3.393 13,0 z m -106,54 c 8.252,-12.7 3.6,-34.956 15,-51 -4.84,-1.131 -11.814,-1.467 -18,-1 -4.577,0.346 -13.372,-0.366 -16,1 -12.718,6.608 -14.377,40.156 -16,49 15.872,0.591 24.147,2.406 35,1 -0.556,-0.003 -1.135,0.81 0,1 z m 99,-1 c 5.973,-5.765 13.285,-3.127 19,-8 -1.394,-15.411 -3.403,-29.372 14,-33 4.148,6.47 1.289,15.486 7,27 3.175,-15.735 -2.165,-22.879 -3,-34 -21.805,-13.395 -42.967,16.714 -37,48 z m -76,-50 c -6.227,15.155 -8.957,31.908 -9,48 12.451,1.698 27.372,-1.51 37,0 0.287,-10.466 1.699,-28.78 6,-46 -10.696,6.848 -27.906,-4.507 -34,-2 z m -370,0 c -5.125,14.65 -10.334,25.178 -16,41 11.627,6.682 27.501,12.68 45,16 2.35,-13.555 12.557,-33.242 17,-48 -16.913,-0.796 -29.249,-7.225 -46,-9 z m 285,3 c -1.119,2.078 -1.078,2.119 1,1 8.371,-1.447 10.84,-0.118 17,-4 -7.567,2.591 -8.086,0.679 -18,3 z m 120,47 c 0.518,-17.048 1.65,-22.22 4,-32 0.636,-2.646 5.712,-9.371 0,-12 -6.088,16.078 -7.473,35.619 -6,44 -14.013,3.888 -28.348,1.662 -42,1 -2.32,1.464 1.953,3.17 -2,3 -2.955,-16.655 1.972,-25.99 4,-36 0.762,-3.761 2.355,-12.437 2,-17 -9.984,17.207 -5.981,38.75 -14,55 0.613,1.386 3.85,0.15 4,2 -0.759,16.723 -2.765,40.537 2,51 0.709,-19.93 -2.918,-28.051 0,-46 0.263,-1.615 -2.542,-6.965 3,-7 -2.112,22.59 -1.665,31.509 -1,52 9.272,4.219 25.929,4.275 37,4 2.245,-29.318 -1.703,-31.971 2,-55 -13.426,-1.978 -20.21,2.553 -36,-2 17.05,-0.896 26.658,-1.892 41,1 -1.234,11.428 -2.623,27.519 -2,42 0.232,5.409 0.534,11.85 4,15 -0.672,-32.369 -2.72,-39.193 2,-60 8.441,-1.922 30.217,2.68 34,-1 -16.781,-1.035 -20.72,0.795 -36,-2 z m 9,-39 c -4.021,11.135 -8.471,27.788 -5,38 11.092,-1.371 21.376,-0.986 33,1 -0.195,-12.188 3.025,-34.025 11,-47 -4.91,1.658 -11.434,2.485 -14,-1 -5.963,10.462 -13.33,12.442 -25,9 z m 66,32 c 2.754,-3.108 5.088,-2.763 7,-5 -4.406,-0.739 -4.097,3.236 -7,4 0.416,-11.503 4.231,-21.186 -5,-31 -0.239,2.761 -3.718,2.282 -5,4 -4.224,9.812 -4.187,20.42 -3,29 -5.095,4.581 -19.948,4.706 -21,10 7.217,-2.885 16.053,-8.591 21,-6 -0.301,15.18 -1.972,21.721 1,40 2.628,-1.207 8.599,2.455 13,0 -1.634,-20.24 0.598,-28.833 -1,-45 z m 7,42 c 3.499,-7.82 0.263,-28.156 0,-43 -3.213,-0.616 -1.37,3.6 -4,1 0.588,24.398 -2.468,32.749 1,45 0.032,-1.444 6.289,-1.517 3,-3 z m -42,-28 c 1.963,22.732 0.043,40.209 3,53 5.044,-2.384 8.568,-5.152 17,-5 1.33,-16.354 -2.697,-36.246 0,-55 -8.98,1.913 -13.137,4.626 -20,7 z m -449,84 c 6.422,-1.527 15.8,-0.146 22,-1 -0.192,-17.965 9.325,-48.552 9,-73 -14.177,-1.245 -30.316,-8.933 -46,-13 -5.477,25.602 -14.268,44.687 -14,67 1.777,-1.823 3.971,4.381 4,0 4.494,3.475 13.915,9.321 16,8 3.432,3.568 6.264,7.736 9,12 z m 316,-85 c -2.343,24.746 -3.905,42.697 2,64 7.173,-3.92 29.145,-8.588 37,-9 -1.314,-23.483 -0.368,-34.533 -1,-52 -14.488,0.225 -19.693,1.096 -37,1 4.508,-6.608 20.508,0.281 28,-5 2.04,2.411 6.561,1.302 8,1 -6.912,-2.836 -25.397,-0.541 -37,0 z m 96,0 c -1.83,17.166 -2.532,33.132 -1,53 8.438,-4.701 28.159,0.513 38,-1 -0.377,-7.456 -1.364,-36.496 -3,-51 -3.994,-1.428 -25.917,-1.026 -34,-1 z"
   id="path5748" />

	<path
   fill-rule="evenodd"
   clip-rule="evenodd"
   fill="#ffffff"
   d="m 335,35.083 c 8.762,8.778 6.525,25.078 -10,14 -6.587,5.848 -18.926,8.765 -27,5 -1.961,-4.121 -1.009,-6.044 -2,-8 2.942,-3.724 8.452,-4.881 11,-9 -10.339,0.81 -24.815,12.558 -31,-2 -3.537,-0.896 -5.264,6.479 -9,9 -10.319,6.965 -19.699,2.7 -32,-2 -0.836,11.523 -19.65,16.347 -23,7 -2.632,1.035 -3.368,3.965 -6,5 2.309,10.555 -11.263,11.578 -17,12 -4.355,-2.312 -5.557,-7.776 -5,-15 -4.084,-1.328 -4.319,0.23 -10,-1 -1.464,-2.203 -3.039,-4.295 -3,-8 -19.791,2.154 -34.493,11.105 -52,1 -5.012,4.863 -11.952,16.631 -21,11 4.223,-16.036 24.26,-24.416 38,-31 25.928,-5.693 33.192,2.485 59,-10 0.184,-0.851 -0.39,-0.943 -1,-1 8.566,-2.352 43.77,-11.084 59,1 14.814,-2.826 29.893,-2.845 40,2 -0.616,4.809 6.864,6.531 10,10 1.322,1.463 1.367,4.702 7,6 -1.835,-0.423 7.898,-0.905 4,0 7.216,-1.675 13.307,2.24 21,4 z"
   id="path5750" />

	<path
   fill-rule="evenodd"
   clip-rule="evenodd"
   fill="#ffffff"
   d="m 226,60.083 c 8.452,2.079 16.026,-18.747 23,-6 14.096,2.251 17.685,-3.651 31,-8 4.386,9.948 11.271,20.454 14,29 -1.683,-2.728 -5.107,3.538 -3,-1 -22.952,6.216 -42.349,2.031 -64,6 -6.817,-3.341 0.852,-14.367 -1,-20 z"
   id="path5752" />

	<path
   fill-rule="evenodd"
   clip-rule="evenodd"
   fill="#ffffff"
   d="m 282,48.083 c 6.438,2.042 7.726,9.156 11,16 3.367,-5.087 -2.921,-11.149 -7,-16 0.431,-2.236 4.928,-0.405 7,-1 2.303,14.351 17.514,20.801 28,12 5.268,0.419 20.463,0.855 21,-3 -0.169,-2.168 3.547,-0.453 5,-1 -0.165,4.723 4.537,5.683 4,8 -18.838,8.777 -30.75,7.312 -51,11 0.354,1.313 1.761,1.573 2,3 19.21,-2.725 32.409,-3.67 49,-8 -5.493,2.717 -13.791,6.617 -20,7 -2.939,0.182 -1.165,-1.7 -2,-1 -5.339,4.478 -20.957,-2.122 -26,5 -2.259,-0.56 1.213,-1.56 -1,-3 -3.484,0.294 0.084,2.706 -2,3 8.241,11.773 15.423,23.958 17,36 -8.014,-13.53 -9.203,-19.507 -16,-34 -20.452,0.158 -26.056,0.875 -39,2 6.985,-3.995 22.628,-2.893 34,-6 -1.609,-13.24 -8.945,-23.178 -14,-30 z m 19,24 c -1.435,-2.422 -5.787,-5.483 -4,-8 -1,0 -2,0 -3,0 0.98,3.387 3.243,10.711 7,8 z"
   id="path5754" />

	<path
   fill-rule="evenodd"
   clip-rule="evenodd"
   fill="#ffffff"
   d="m 221,80.083 c 0.068,2.932 2.286,3.714 4,5 -6.076,3.601 -4.371,22.088 -4,25 3.383,-2.825 0.66,-12.906 3,-23 31.05,0.46 44.026,-2.169 75,-2 0.512,7.279 16.683,26.572 14,34 -1.845,5.107 -12.814,4.336 -19,5 -10.107,1.084 -21.195,2.608 -27,4 -1.274,0.306 -0.036,-1.452 0,-2 -13.523,3.076 -34.491,3.11 -46,2 -1.831,-3.823 1.758,-14.632 0,-18 -2.725,6.666 -1.091,13.496 -3,20 0.354,1.313 1.761,1.573 2,3 35.801,-1.126 66.41,-1.159 98,-9 -0.07,-2.167 -2.259,-5.451 -1,-8 2.306,-0.306 1.111,2.889 3,3 -1.212,-13.058 -8.012,-23.99 -16,-37 12.41,-4.83 24.279,-3.208 37,-6 6.826,-1.498 11.313,-5.795 18,-3 6.895,13.323 12.16,26.283 17,35 -16.031,10.888 -41.955,8.254 -56,12 0.776,0.89 1.075,2.258 1,4 4.034,-0.286 10.42,-2.881 16,-3 -1.655,0.035 10.971,-0.167 3,1 -7.206,3.563 -9.458,-1.227 -15,4 19.809,-1.332 36.045,-4.293 54,-10 6.954,5.221 -3.314,14.502 -5,18 -0.854,13.438 -5.978,25.092 -3,33 -9.847,5.553 -22.649,7.596 -32,11 -5.763,-15.614 -7.212,-27.926 -15,-48 -4.6,-5.014 -15.088,-1.518 -25,0 -5.782,0.885 -10.791,3.372 -16,4 -18.1,2.182 -30.523,-0.286 -61,3 26.055,5.108 46.732,-3.27 72,-2 9.214,-3.927 13.401,-1.861 24,-5 5.57,14.929 9.149,32.044 12,48 -7.816,3.815 -28.813,4.7 -35,5 -0.16,0.031 -7.296,1.824 -4,-1 -33.042,5.851 -53.207,4.173 -72,6 -2.039,-0.294 -1.961,-2.706 -4,-3 0.726,-16.484 3.192,-30.467 4,-47 -5.438,21.192 -5.001,31.503 -5,53 21.608,2.461 35.077,-4.136 44,-2 3.578,0.856 27.998,-0.364 45,-2 9.842,-0.946 19.933,-1.241 27,-4 1.853,-0.723 3.255,-3.077 3,-4 -3.756,-13.578 -5.705,-28.913 -11,-43 4.835,2.137 6.129,13.358 8,20 2.61,9.266 5.016,18.919 7,26 11.428,-2.868 22.749,-3.2 31,-9 -0.971,11.048 -19.775,5.441 -28,14 8.581,-0.425 15.754,-3.241 27,-7 1.801,20.591 -0.232,45.721 4,57 -4.842,5.227 -12.379,4.995 -18,11 -7.387,-21.751 -8.95,-39.689 -14,-62 -4.461,5.063 1.021,10.827 2,15 3.349,14.261 4.115,28.073 9,48 -4.722,5.774 -5.673,0.121 -7,-7 -2.788,-14.961 -4.749,-38.779 -8,-54 -0.357,24.21 6.566,44.633 8,66 -9.948,4.348 -30.36,2.477 -46,6 -3.555,0.801 -8.184,3.99 -10,4 -6.852,0.038 -13.418,-7.233 -20,-4 2.162,-3.727 -25.748,-1.252 -36,0 -0.729,0.089 -2.05,-1.99 -2,-2 -2.688,0.525 -12.379,5.849 -15,7 -5.373,-11.972 -3.508,-32.118 -4,-44 -0.101,-2.445 -1.982,-4.916 -2,-7 -0.022,-2.635 2.101,-5.266 2,-8 -0.105,-2.858 -2.632,-5.058 0,-8 -5.542,-3.981 -12.184,-1.501 -20,-2 -26.862,-1.715 -63.396,-6.93 -94,-10 34.389,9.917 74.35,9.907 109,12 2.098,19.025 -0.501,35.066 3,45 -0.309,6.185 -1.221,16.447 0,20 -12.547,3.751 -25.883,1.926 -39,4 -4.814,0.762 -7.462,3.544 -11,4 -9.604,1.238 -28.855,-6.939 -44,-2 -11.353,-8.017 -14.133,-7.295 -34,-11 1.158,-1.683 -0.468,-5.107 3,-3 -0.676,-26.534 7.8,-52.687 8,-73 -16.645,-2.015 -28.402,-6.48 -48,-13 0.294,-2.039 2.706,-1.961 3,-4 13.729,5.958 29.096,10.641 43,15 5.454,-3.105 9.084,-23.578 13,-34 3.239,-8.622 7.185,-14.361 10,-20 -18.473,-4.173 -33.864,-7.636 -49,-11 5.514,-5.194 14.57,0.271 22,2 9.304,2.165 19.591,5.192 27,6 4.069,-9.242 9.498,-19.353 14,-27 3.842,-6.524 13.196,-15.964 13,-17 -0.618,-3.269 -16.174,-5.979 -22,-7 -7.276,-1.275 -10.124,0.201 -19,-2 15.585,-4.102 30.294,7.983 46,5 1.138,-0.216 0.552,-0.968 0,-1 5.802,0.335 12.651,3.369 18,4 12.875,1.518 25.148,0.006 41,3 -20.438,4.095 -39.161,-5.013 -59,-3 20.741,4.931 47.253,7.078 70,8 2.31,11.659 -3.148,26.523 -3,41 -18.803,2.104 -26.145,0.261 -45,-1 -8.382,-0.561 -14.861,-4.608 -23,-2 -6.127,-2.897 -17.447,-3.015 -22,-4 2.119,-15.539 14.75,-27.069 22,-41 -8.067,4.229 -12.135,15.944 -18,26 -4.771,8.18 -10.546,13.004 -7,20 34.15,2.737 57.35,6.467 94,8 6.307,-5.449 3.828,-18.884 5,-31 0.694,-7.174 2.971,-13.265 1,-19 -5.736,1.09 -8.806,0.482 -15,0 3.977,-4.498 10.898,1.463 14,-1 7.401,-5.876 0.85,-13.865 5,-22 3.643,1.186 0.346,18.929 -1,20 z m 33,112 c -14.298,1.01 -29.557,-1.58 -38,3 32.907,-1.674 58.704,0.122 101,-4 3.276,-0.319 9.395,-1.323 15,-4 -22.538,1.692 -54.418,3.334 -78,5 z m -41,1 c -2.709,15.715 0.076,26.298 1,37 1.089,12.611 -1.622,25.142 3,33 -0.902,-24.332 -2.101,-34.96 -4,-70 z m -97,-67 c -10.02,16.9 -14.756,32.596 -20,50 4.639,7.1 20.247,7.706 28,9 29.486,4.92 56.301,4.354 82,7 5.275,-2.792 2.903,-8.734 3,-10 0.876,-11.5 5.128,-29.582 4,-43 -3.772,21.609 -4.876,32.227 -5,46 -7.483,-0.27 -13.917,2.88 -22,3 0.037,-0.001 1.291,-1.865 0,-2 -6.607,-0.688 -15.747,0.928 -25,0 -11.447,-1.148 -23.21,-4.605 -34,-6 -4.12,-0.532 -9.485,1.252 -13,0 -0.29,-0.104 1.052,-1.991 1,-2 -5.825,-0.962 -11.394,0.854 -17,-3 6.476,-15.684 9.758,-33.174 19,-46 39.619,3.326 59.81,13.708 97,8 -29.109,0.897 -63.668,-6.013 -98,-11 z m -28,107 c -0.938,8.901 -4.221,20.563 1,23 -3.627,-15.598 4.775,-41.77 5,-68 -3.389,12.867 -4.538,31.117 -6,45 z"
   id="path5756" />

	<path
   fill-rule="evenodd"
   clip-rule="evenodd"
   fill="#ffffff"
   d="m 148,53.083 c -0.313,5.034 -8.738,10.584 -11,17 -9.005,-1.517 -23.739,-2.602 -35,-6 0.426,-1.907 2.857,-1.81 2,-5 8.775,0.031 13.749,-4.126 16,-9 12.087,0.815 19.371,6.605 28,3 z"
   id="path5758" />

	<path
   fill-rule="evenodd"
   clip-rule="evenodd"
   fill="#ffffff"
   d="m 158,51.083 c 0.95,1.341 -3.157,6.133 -6,7 -3.061,5.865 -7.447,14.41 -11,13 5.163,-4.604 8.933,-13.908 17,-20 z"
   id="path5760" />

	<path
   fill-rule="evenodd"
   clip-rule="evenodd"
   d="m 217,263.083 c -4.622,-7.858 -1.911,-20.389 -3,-33 -0.924,-10.702 -3.709,-21.285 -1,-37 1.899,35.04 3.098,45.668 4,70 z"
   id="path5762" />

	<path
   fill-rule="evenodd"
   clip-rule="evenodd"
   d="m 214,137.083 c -37.19,5.708 -57.381,-4.674 -97,-8 -9.242,12.826 -12.524,30.316 -19,46 5.606,3.854 11.175,2.038 17,3 0.052,0.009 -1.29,1.896 -1,2 3.515,1.252 8.88,-0.532 13,0 10.79,1.395 22.553,4.852 34,6 9.253,0.928 18.393,-0.688 25,0 1.291,0.135 0.037,1.999 0,2 8.083,-0.12 14.517,-3.27 22,-3 0.124,-13.773 1.228,-24.391 5,-46 1.128,13.418 -3.124,31.5 -4,43 -0.097,1.266 2.275,7.208 -3,10 -25.699,-2.646 -52.514,-2.08 -82,-7 -7.753,-1.294 -23.361,-1.9 -28,-9 5.244,-17.404 9.98,-33.1 20,-50 34.332,4.987 68.891,11.897 98,11 z"
   id="path5764" />

	<path
   fill-rule="evenodd"
   clip-rule="evenodd"
   fill="#ffffff"
   d="m 109,120.083 c -13.423,-5.781 -28.297,-4.833 -45,-14 8.216,-7.457 14.78,-20.149 26,-29 9.897,-7.808 26.185,-0.216 42,0 -7.191,15.389 -17.001,26.114 -23,43 z"
   id="path5766" />

	<path
   fill-rule="evenodd"
   clip-rule="evenodd"
   fill="#ffffff"
   d="m 500,114.083 c 5.059,-4.3 8.604,-6.417 9,-12 -5.437,1.231 -7.62,11.76 -12,8 -1.116,13.851 -27.248,17.666 -29,2 -13.091,3.702 -26.519,1.332 -39,2 -1.453,-0.443 0.102,-0.878 0,-2 -11.209,3.09 -15.793,2.086 -23,0 3.457,-8.761 17.742,-0.473 20,-13 6.756,0.066 14.185,1.294 20,4 3.594,-9.098 18.872,-13.64 31,-6 8.382,-9.126 25.821,-11.234 38,-4 6.377,16.783 16.453,6.467 28,14 -0.902,2.203 0.143,4.295 -1,8 -4.426,0.155 0.473,-2.827 -2,-4 -9.396,3.952 -19.997,-1.82 -27,3 0.949,-3.393 -8.38,2.064 -13,0 z"
   id="path5768" />

	<path
   fill-rule="evenodd"
   clip-rule="evenodd"
   fill="#ffffff"
   d="m 407,167.083 c -10.853,1.406 -19.128,-0.409 -35,-1 1.623,-8.844 3.282,-42.392 16,-49 2.628,-1.366 11.423,-0.654 16,-1 6.186,-0.467 13.16,-0.131 18,1 -11.4,16.044 -6.748,38.3 -15,51 -1.135,-0.19 -0.556,-1.003 0,-1 z"
   id="path5770" />

	<path
   fill-rule="evenodd"
   clip-rule="evenodd"
   fill="#ffffff"
   d="m 363,117.083 c -6.16,3.882 -8.629,2.553 -17,4 -2.078,1.119 -2.119,1.078 -1,-1 9.914,-2.321 10.433,-0.409 18,-3 z"
   id="path5772" />

	<path
   fill-rule="evenodd"
   clip-rule="evenodd"
   fill="#ffffff"
   d="m 501,169.083 c -3.783,3.68 -25.559,-0.922 -34,1 -4.72,20.807 -2.672,27.631 -2,60 -3.466,-3.15 -3.768,-9.591 -4,-15 -0.623,-14.481 0.766,-30.572 2,-42 -14.342,-2.892 -23.95,-1.896 -41,-1 15.79,4.553 22.574,0.022 36,2 -3.703,23.029 0.245,25.682 -2,55 -11.071,0.275 -27.728,0.219 -37,-4 -0.665,-20.491 -1.112,-29.41 1,-52 -5.542,0.035 -2.737,5.385 -3,7 -2.918,17.949 0.709,26.07 0,46 -4.765,-10.463 -2.759,-34.277 -2,-51 -0.15,-1.85 -3.387,-0.614 -4,-2 8.019,-16.25 4.016,-37.793 14,-55 0.355,4.563 -1.238,13.239 -2,17 -2.028,10.01 -6.955,19.345 -4,36 3.953,0.17 -0.32,-1.536 2,-3 13.652,0.662 27.987,2.888 42,-1 -1.473,-8.381 -0.088,-27.922 6,-44 5.712,2.629 0.636,9.354 0,12 -2.35,9.78 -3.482,14.952 -4,32 15.28,2.795 19.219,0.965 36,2 z"
   id="path5774" />

	<path
   fill-rule="evenodd"
   clip-rule="evenodd"
   fill="#ffffff"
   d="m 541,205.083 c -4.401,2.455 -10.372,-1.207 -13,0 -2.972,-18.279 -1.301,-24.82 -1,-40 -4.947,-2.591 -13.783,3.115 -21,6 1.052,-5.294 15.905,-5.419 21,-10 -1.187,-8.58 -1.224,-19.188 3,-29 1.282,-1.718 4.761,-1.239 5,-4 9.231,9.814 5.416,19.497 5,31 2.903,-0.764 2.594,-4.739 7,-4 -1.912,2.237 -4.246,1.892 -7,5 1.598,16.167 -0.634,24.76 1,45 z"
   id="path5776" />

	<path
   fill-rule="evenodd"
   clip-rule="evenodd"
   fill="#ffffff"
   d="m 544,205.083 c -3.468,-12.251 -0.412,-20.602 -1,-45 2.63,2.6 0.787,-1.616 4,-1 0.263,14.844 3.499,35.18 0,43 3.289,1.483 -2.968,1.556 -3,3 z"
   id="path5778" />

	<path
   fill-rule="evenodd"
   clip-rule="evenodd"
   fill="#ffffff"
   d="m 47,246.083 c -2.085,1.321 -11.506,-4.525 -16,-8 -0.029,4.381 -2.223,-1.823 -4,0 -0.268,-22.313 8.523,-41.398 14,-67 15.684,4.067 31.823,11.755 46,13 0.325,24.448 -9.192,55.035 -9,73 -6.2,0.854 -15.578,-0.527 -22,1 -2.736,-4.264 -5.568,-8.432 -9,-12 z"
   id="path5780" />

	<path
   fill-rule="evenodd"
   clip-rule="evenodd"
   fill="#ffffff"
   d="m 409,173.083 c -1.439,0.302 -5.96,1.411 -8,-1 -7.492,5.281 -23.492,-1.608 -28,5 17.307,0.096 22.512,-0.775 37,-1 0.632,17.467 -0.314,28.517 1,52 -7.855,0.412 -29.827,5.08 -37,9 -5.905,-21.303 -4.343,-39.254 -2,-64 11.603,-0.541 30.088,-2.836 37,0 z"
   id="path5782" />

	<path
   fill-rule="evenodd"
   clip-rule="evenodd"
   d="m 94,188.083 c -0.225,26.23 -8.627,52.402 -5,68 -5.221,-2.437 -1.938,-14.099 -1,-23 1.462,-13.883 2.611,-32.133 6,-45 z"
   id="path5784" />

	<path
   fill-rule="evenodd"
   clip-rule="evenodd"
   d="m 448,265.083 c -15.466,-2.986 -26.367,7.683 -41,7 -6.577,-12.326 -24.188,-14.9 -33,-3 -9.104,-1.844 -20.84,1.501 -31,4 8.809,-9.312 21.662,-4.19 27,-10 13.923,-5.522 29.292,-4.031 41,5 0.249,-0.666 -0.475,-1.185 -1,-1 10.285,-3.615 29.936,-6.007 38,-2 z"
   id="path5786" />

	<path
   fill-rule="evenodd"
   clip-rule="evenodd"
   d="m 337,289.083 c 4.476,-6.109 29.598,-12.317 32,-2 -11.404,-5.678 -26.587,-3.381 -34,8 -13.1,-7.137 -18.716,-9.689 -30,-8 -5.578,0.835 -15.444,7.408 -22,4 -2.235,2.321 -8.719,1.501 -10,2 -12.814,-13.871 -38.204,-10.806 -52,2 -1.567,-0.354 0.875,-1.761 -1,-2 12.916,-12.037 36.845,-15.962 54,-7 0.395,4.139 8.042,1.119 11,5 22.37,-7.507 34.15,-9.831 52,-2 z"
   id="path5788" />

	<path
   fill-rule="evenodd"
   clip-rule="evenodd"
   d="m 62,293.083 c 8.402,-5.751 18.802,-1.797 29,-1 12.746,0.996 21.023,-4.964 29,1 -19.84,4.072 -35,-4.081 -52,5 -5.698,-3.096 -9.845,-3.22 -9,-7 -8.667,-3.031 -30.323,-2.232 -37,4 3.526,-6.542 10.571,-7.926 16,-9 -1.928,0.381 9.054,1.165 8,1 5.92,0.926 10.865,1.859 16,6 z"
   id="path5790" />

</g>
    </g>
    <g
       id="g17457"
       transform="matrix(0.14712417,0.11469314,-0.13529174,0.13093446,52.524953,78.690295)">
      <g
         id="g17403">
        <path
           d="m 340.233,366.557 c 0,10.184 -8.252,18.435 -18.44,18.435 -10.173,0 -18.43,-8.251 -18.43,-18.435 0,-10.178 8.257,-18.43 18.43,-18.43 10.188,0 18.44,8.252 18.44,18.43 z m 41.475,0 c 0,33.04 -26.881,59.919 -59.915,59.919 -33.039,0 -59.918,-26.879 -59.918,-59.919 0,-28.169 19.567,-51.804 45.817,-58.173 V 249.04 l -49.681,-49.691 v 206.694 c 0,7.771 -6.302,14.079 -14.08,14.096 l -199.135,0.016 c -0.011,0 -0.023,0 -0.028,0 l 95.139,-28.196 h -1.122 l 91.026,-91.026 v -189.91 c 0,-3.737 1.486,-7.321 4.124,-9.967 L 330.865,4.13 c 5.496,-5.507 14.432,-5.507 19.929,0 5.519,5.502 5.519,14.432 0,19.937 L 258,116.868 v 42.61 l 73.752,73.754 c 2.648,2.649 4.133,6.232 4.133,9.971 v 65.182 c 26.25,6.368 45.823,29.999 45.823,58.172 z m -151.897,-45.685 -71.087,71.087 71.087,0.005 z m 130.746,45.685 c 0,-21.374 -17.388,-38.769 -38.764,-38.769 -21.379,0 -38.772,17.395 -38.772,38.769 0,21.38 17.394,38.774 38.772,38.774 21.376,10e-4 38.764,-17.394 38.764,-38.774 z"
           id="path17401"
           style="fill:#1a1a1a" />
      </g>
      <g
         id="g17405" />
      <g
         id="g17407" />
      <g
         id="g17409" />
      <g
         id="g17411" />
      <g
         id="g17413" />
      <g
         id="g17415" />
      <g
         id="g17417" />
      <g
         id="g17419" />
      <g
         id="g17421" />
      <g
         id="g17423" />
      <g
         id="g17425" />
      <g
         id="g17427" />
      <g
         id="g17429" />
      <g
         id="g17431" />
      <g
         id="g17433" />
    </g>
  </g>
</svg>
